<svg width="200" height="200" viewBox="0 0 200 200" fill="none" xmlns="http://www.w3.org/2000/svg">
<g clip-path="url(#clip0_1231_771)">
<path d="M38.2227 171.68L44.6621 142.764H47.9023L41.5039 171.68H38.2227ZM38.0996 171.68L31.6602 142.764H34.9414L41.3398 171.68H38.0996ZM29.6094 171.68V142.764H33.3418V171.68H29.6094ZM46.2617 171.68V142.764H49.9941V171.68H46.2617ZM57.2959 171.68V168.439H68.6572V171.68H57.2959ZM57.9111 158.924V155.602H66.1962V158.924H57.9111ZM55.2041 142.764H58.9365V171.68H55.2041V142.764ZM57.706 142.764H68.247V146.004H57.706V142.764ZM83.7811 164.01V150.434H87.5135V164.01H83.7811ZM75.3728 171.68V168.439H79.4334V171.68H75.3728ZM75.3728 146.004V142.764H79.4334V146.004H75.3728ZM75.3728 146.004V142.764H79.4334V146.004H75.3728ZM87.5135 150.434H83.7811C83.7811 149.012 83.3983 147.918 82.6326 147.152C81.867 146.387 80.8006 146.004 79.4334 146.004V142.764C81.0194 142.764 82.4139 143.092 83.617 143.748C84.8475 144.377 85.8045 145.279 86.4881 146.455C87.1717 147.604 87.5135 148.93 87.5135 150.434ZM87.5135 163.969C87.5135 165.5 87.1717 166.84 86.4881 167.988C85.8045 169.137 84.8475 170.039 83.617 170.695C82.4139 171.352 81.0194 171.68 79.4334 171.68V168.439C80.8006 168.439 81.867 168.057 82.6326 167.291C83.3983 166.498 83.7811 165.391 83.7811 163.969H87.5135ZM72.7478 171.68V142.764H76.4803V171.68H72.7478ZM92.6246 171.68V142.764H96.357V171.68H92.6246Z" fill="#1E1E1E"/>
<path d="M109.848 171.68V142.148H113.58V171.68H109.848ZM118.974 162.451V159.785H132.961V162.451H118.974ZM125.332 172.336V169.096H125.537V172.336H125.332ZM117.785 164.338V158.309H121.517V164.338H117.785ZM129.228 159.785V157.652H132.961V159.785H129.228ZM132.961 157.652H129.228C129.228 156.449 128.859 155.465 128.121 154.699C127.41 153.934 126.48 153.551 125.332 153.551V150.352C126.808 150.352 128.107 150.666 129.228 151.295C130.377 151.924 131.279 152.799 131.935 153.92C132.619 155.014 132.961 156.258 132.961 157.652ZM129.392 165.527L132.879 166.225C132.714 167.4 132.291 168.453 131.607 169.383C130.924 170.313 130.062 171.037 129.023 171.557C127.984 172.076 126.822 172.336 125.537 172.336V169.096C126.521 169.096 127.369 168.809 128.08 168.234C128.818 167.633 129.256 166.73 129.392 165.527ZM117.785 158.35C117.785 156.791 118.113 155.424 118.769 154.248C119.453 153.045 120.355 152.102 121.476 151.418C122.625 150.707 123.924 150.352 125.373 150.352V153.551C124.17 153.551 123.226 153.975 122.543 154.822C121.859 155.643 121.517 156.818 121.517 158.35H117.785ZM117.785 164.338H121.517C121.517 165.842 121.859 167.018 122.543 167.865C123.226 168.686 124.17 169.096 125.373 169.096V172.336C123.924 172.336 122.625 171.994 121.476 171.311C120.355 170.6 119.453 169.643 118.769 168.439C118.113 167.236 117.785 165.869 117.785 164.338ZM136.754 171.68V150.967H140.487V171.68H136.754ZM148.28 171.68V157.57H152.012V171.68H148.28ZM148.28 157.57C148.28 156.422 147.925 155.492 147.213 154.781C146.503 154.043 145.587 153.674 144.465 153.674L145.409 150.352C146.667 150.352 147.788 150.666 148.772 151.295C149.784 151.924 150.577 152.785 151.151 153.879C151.725 154.973 152.012 156.203 152.012 157.57H148.28ZM138.846 157.652C138.846 156.258 139.133 155.014 139.708 153.92C140.282 152.799 141.061 151.924 142.046 151.295C143.03 150.666 144.151 150.352 145.409 150.352L144.465 153.674C143.29 153.674 142.333 154.043 141.594 154.781C140.856 155.52 140.487 156.477 140.487 157.652H138.846ZM165.984 166.348C165.984 165.664 165.738 165.104 165.246 164.666C164.754 164.201 164.111 163.791 163.318 163.436C162.552 163.053 161.732 162.67 160.857 162.287C160.009 161.904 159.189 161.467 158.396 160.975C157.63 160.455 157.002 159.813 156.509 159.047C156.017 158.254 155.771 157.297 155.771 156.176C155.771 156.176 155.88 156.176 156.099 156.176C156.345 156.176 156.646 156.176 157.002 156.176C157.384 156.176 157.753 156.176 158.109 156.176C158.464 156.176 158.765 156.176 159.011 156.176C159.257 156.176 159.38 156.176 159.38 156.176C159.38 156.859 159.627 157.434 160.119 157.898C160.611 158.336 161.24 158.732 162.005 159.088C162.798 159.443 163.632 159.826 164.507 160.236C165.382 160.619 166.203 161.07 166.968 161.59C167.734 162.109 168.363 162.752 168.855 163.518C169.374 164.256 169.634 165.199 169.634 166.348C169.634 166.348 169.511 166.348 169.265 166.348C169.019 166.348 168.704 166.348 168.322 166.348C167.966 166.348 167.611 166.348 167.255 166.348C166.9 166.348 166.599 166.348 166.353 166.348C166.107 166.348 165.984 166.348 165.984 166.348ZM162.498 172.295V169.055C163.509 169.055 164.343 168.809 165 168.316C165.656 167.797 165.984 167.141 165.984 166.348H169.634C169.634 167.496 169.32 168.521 168.691 169.424C168.089 170.326 167.255 171.037 166.189 171.557C165.123 172.049 163.892 172.295 162.498 172.295ZM155.771 156.176C155.771 155.055 156.044 154.057 156.591 153.182C157.166 152.279 157.958 151.582 158.97 151.09C159.982 150.57 161.103 150.311 162.334 150.311V153.551C161.486 153.551 160.775 153.797 160.201 154.289C159.654 154.781 159.38 155.41 159.38 156.176H155.771ZM158.601 165.486C158.738 166.689 159.175 167.592 159.914 168.193C160.652 168.768 161.513 169.055 162.498 169.055V172.295C161.24 172.295 160.078 172.035 159.011 171.516C157.945 170.996 157.07 170.272 156.386 169.342C155.73 168.412 155.32 167.359 155.156 166.184L158.601 165.486ZM166.189 157.119C166.052 155.889 165.615 154.986 164.877 154.412C164.165 153.838 163.318 153.551 162.334 153.551V150.311C163.619 150.311 164.78 150.57 165.82 151.09C166.859 151.609 167.72 152.334 168.404 153.264C169.087 154.166 169.511 155.219 169.675 156.422L166.189 157.119Z" fill="white"/>
</g>
<g clip-path="url(#clip1_1231_771)">
<path d="M134.119 27.7344H76.0376C65.7564 27.7344 57.4219 36.0689 57.4219 46.3501V104.431C57.4219 114.712 65.7564 123.047 76.0376 123.047H134.119C144.4 123.047 152.734 114.712 152.734 104.431V46.3501C152.734 36.0689 144.4 27.7344 134.119 27.7344Z" fill="white"/>
<path d="M129.515 50.963C126.754 48.203 123.011 46.6523 119.107 46.6523C115.203 46.6523 111.46 48.203 108.699 50.963L80.6518 79.0074C77.9496 81.7793 76.4482 85.5041 76.473 89.375C76.4977 93.246 78.0465 96.9513 80.784 99.6883C83.5212 102.425 87.2269 103.974 91.0978 103.998C94.9688 104.022 98.6934 102.52 101.465 99.8177L129.515 71.7733C132.27 69.0111 133.817 65.2694 133.817 61.3681C133.817 57.467 132.27 53.725 129.515 50.963ZM126.387 68.6479L112.363 82.6687L97.8034 68.112L111.827 54.0884C113.765 52.1946 116.372 51.1415 119.082 51.1575C121.792 51.1734 124.386 52.2568 126.302 54.1729C128.218 56.089 129.302 58.6833 129.318 61.393C129.333 64.1029 128.28 66.7097 126.387 68.6479ZM122.123 62.7732C122.329 62.9785 122.492 63.2224 122.603 63.4908C122.714 63.7591 122.771 64.0467 122.771 64.3373C122.771 64.6279 122.714 64.9155 122.603 65.1837C122.492 65.4522 122.329 65.696 122.123 65.9014L115.491 72.5332C115.286 72.7384 115.042 72.9011 114.774 73.012C114.505 73.1232 114.218 73.1801 113.928 73.1799C113.637 73.1799 113.35 73.1226 113.082 73.0113C112.813 72.9001 112.57 72.7371 112.365 72.5317C112.159 72.3264 111.997 72.0825 111.886 71.8143C111.775 71.546 111.718 71.2584 111.718 70.9682C111.718 70.6778 111.775 70.3904 111.886 70.1221C111.998 69.854 112.161 69.6104 112.366 69.405L118.998 62.7732C119.412 62.359 119.974 62.1263 120.56 62.1263C121.146 62.1263 121.708 62.359 122.123 62.7732Z" fill="#F25939"/>
</g>
<defs>
<clipPath id="clip0_1231_771">
<rect width="140.625" height="31.0547" fill="white" transform="translate(29.4922 141.797)"/>
</clipPath>
<clipPath id="clip1_1231_771">
<rect width="95.3125" height="95.3125" fill="white" transform="translate(57.4219 27.7344)"/>
</clipPath>
</defs>
</svg>
