<svg width="259" height="69" viewBox="0 0 259 69" fill="none" xmlns="http://www.w3.org/2000/svg">
<g clip-path="url(#clip0_92_48)">
<path d="M29.0918 9.57943L57.9593 26.2461C58.9164 26.7986 59.6147 27.7087 59.9007 28.7761C60.1867 29.8435 60.037 30.9808 59.4845 31.9379L53.2345 42.7632C50.4718 47.5483 45.9214 51.0399 40.5843 52.47C35.2472 53.9 29.5607 53.1514 24.7756 50.3887C22.4063 49.0208 20.3296 47.1996 18.6641 45.029C16.9986 42.8585 15.7769 40.3812 15.0688 37.7386C13.6387 32.4015 14.3874 26.7149 17.1501 21.9298L23.4001 11.1045C23.9526 10.1475 24.8627 9.44919 25.9301 9.16317C26.9975 8.87716 28.1348 9.02689 29.0918 9.57943Z" fill="white" fill-opacity="0.25" stroke="white" stroke-width="6" stroke-linecap="round" stroke-linejoin="round"/>
<path d="M31.2041 25.3118L31.2041 37.0969L38.9361 37.0969" stroke="white" stroke-width="6" stroke-linecap="round" stroke-linejoin="round"/>
</g>
<path d="M100.572 26.28C101.127 27.4107 101.404 28.6693 101.404 30.056C101.404 31.4427 101.127 32.7013 100.572 33.832C100.018 34.9413 99.3031 35.8267 98.4285 36.488C96.6578 37.8533 94.8231 38.536 92.9245 38.536H88.9245V42.152C88.9245 42.6427 88.9031 43.016 88.8605 43.272C88.8391 43.5067 88.7431 43.784 88.5725 44.104C88.2738 44.68 87.4418 44.968 86.0765 44.968C84.5831 44.968 83.7085 44.5733 83.4525 43.784C83.3245 43.4213 83.2605 42.8667 83.2605 42.12V24.36C83.2605 23.8693 83.2711 23.5067 83.2925 23.272C83.3351 23.016 83.4418 22.728 83.6125 22.408C83.9111 21.832 84.7431 21.544 86.1085 21.544H92.9565C94.8338 21.544 96.6578 22.2267 98.4285 23.592C99.3031 24.2533 100.018 25.1493 100.572 26.28ZM92.9565 32.872C93.5965 32.872 94.2258 32.6373 94.8445 32.168C95.4631 31.6987 95.7725 30.9947 95.7725 30.056C95.7725 29.1173 95.4631 28.4133 94.8445 27.944C94.2258 27.4533 93.5858 27.208 92.9245 27.208H88.9245V32.872H92.9565ZM102.999 36.584C102.999 34.024 103.895 31.912 105.687 30.248C107.479 28.584 109.527 27.752 111.831 27.752C114.135 27.752 116.173 28.584 117.943 30.248C119.714 31.8907 120.599 33.992 120.599 36.552C120.599 38.3227 120.141 39.9013 119.223 41.288C118.306 42.6533 117.186 43.6667 115.863 44.328C114.562 44.968 113.207 45.288 111.799 45.288C110.391 45.288 109.026 44.9467 107.703 44.264C106.381 43.56 105.261 42.536 104.343 41.192C103.447 39.8267 102.999 38.2907 102.999 36.584ZM109.687 38.888C110.37 39.4 111.063 39.656 111.767 39.656C112.471 39.656 113.175 39.3893 113.879 38.856C114.583 38.3227 114.935 37.5333 114.935 36.488C114.935 35.4427 114.605 34.664 113.943 34.152C113.282 33.64 112.567 33.384 111.799 33.384C111.031 33.384 110.317 33.6507 109.655 34.184C108.994 34.7173 108.663 35.5067 108.663 36.552C108.663 37.576 109.005 38.3547 109.687 38.888ZM127.947 36.584C127.947 37.48 128.245 38.184 128.843 38.696C129.44 39.1867 130.069 39.432 130.731 39.432C131.413 39.432 132.043 39.24 132.619 38.856C133.216 38.4507 133.696 38.248 134.059 38.248C134.699 38.248 135.477 38.8133 136.395 39.944C136.885 40.5627 137.131 41.1173 137.131 41.608C137.131 42.4187 136.544 43.176 135.371 43.88C134.155 44.7333 132.661 45.16 130.891 45.16C128.907 45.16 126.997 44.4453 125.163 43.016C124.288 42.3333 123.573 41.4267 123.019 40.296C122.464 39.144 122.187 37.8853 122.187 36.52C122.187 35.1333 122.464 33.8853 123.019 32.776C123.573 31.6453 124.288 30.7387 125.163 30.056C126.933 28.648 128.821 27.944 130.827 27.944C131.637 27.944 132.427 28.0613 133.195 28.296C133.963 28.5093 134.528 28.7227 134.891 28.936L135.403 29.256C135.787 29.512 136.085 29.7147 136.299 29.864C136.853 30.2907 137.131 30.7813 137.131 31.336C137.131 31.8693 136.907 32.4773 136.459 33.16C135.691 34.3333 134.955 34.92 134.251 34.92C133.845 34.92 133.269 34.6853 132.523 34.216C132.139 33.8533 131.584 33.672 130.859 33.672C130.155 33.672 129.493 33.928 128.875 34.44C128.256 34.952 127.947 35.6667 127.947 36.584ZM149.118 36.552L153.374 40.072C153.907 40.52 154.238 40.8613 154.366 41.096C154.515 41.3307 154.59 41.5547 154.59 41.768C154.59 42.28 154.259 42.9733 153.598 43.848C152.873 44.744 152.233 45.192 151.678 45.192C151.209 45.192 150.558 44.8827 149.726 44.264L149.406 44.04C148.915 43.6347 148.158 42.9307 147.134 41.928C146.11 40.904 145.331 40.1787 144.798 39.752V42.216C144.798 42.7067 144.777 43.08 144.734 43.336C144.713 43.5707 144.617 43.848 144.446 44.168C144.169 44.7227 143.347 45 141.982 45C140.638 45 139.817 44.712 139.518 44.136C139.369 43.816 139.273 43.5387 139.23 43.304C139.209 43.048 139.198 42.6747 139.198 42.184V23.016C139.198 22.5253 139.209 22.1627 139.23 21.928C139.273 21.672 139.369 21.384 139.518 21.064C139.817 20.488 140.649 20.2 142.014 20.2C143.038 20.2 143.763 20.3813 144.19 20.744C144.553 21.0427 144.745 21.512 144.766 22.152C144.787 22.344 144.798 22.6427 144.798 23.048V33.192C145.182 32.872 145.758 32.328 146.526 31.56C147.315 30.792 147.902 30.248 148.286 29.928L148.67 29.672C149.417 29.096 150.057 28.808 150.59 28.808C151.123 28.808 151.731 29.2453 152.414 30.12C153.118 30.9733 153.47 31.6453 153.47 32.136C153.47 32.6267 153.075 33.2027 152.286 33.864L149.118 36.552ZM171.641 34.568C171.641 35.8693 171.311 36.84 170.649 37.48C170.009 38.0987 169.295 38.408 168.505 38.408H160.921C160.921 39.0053 161.273 39.5067 161.977 39.912C162.681 40.3173 163.385 40.52 164.089 40.52C165.327 40.52 166.297 40.392 167.001 40.136L167.353 40.008C167.865 39.7733 168.292 39.656 168.633 39.656C169.316 39.656 169.903 40.136 170.393 41.096C170.671 41.672 170.809 42.1627 170.809 42.568C170.809 44.4667 168.537 45.416 163.993 45.416C162.415 45.416 161.007 45.1493 159.769 44.616C158.553 44.0613 157.604 43.336 156.921 42.44C155.577 40.712 154.905 38.7813 154.905 36.648C154.905 33.96 155.769 31.816 157.497 30.216C159.247 28.5947 161.423 27.784 164.025 27.784C166.991 27.784 169.167 28.8293 170.553 30.92C171.279 32.0293 171.641 33.2453 171.641 34.568ZM164.889 35.496C165.7 35.496 166.105 35.1547 166.105 34.472C166.105 33.9813 165.913 33.5867 165.529 33.288C165.167 32.9893 164.633 32.84 163.929 32.84C163.247 32.84 162.564 33.128 161.881 33.704C161.199 34.2587 160.857 34.856 160.857 35.496H164.889ZM183.209 33.8L181.129 33.672V38.088C181.129 38.664 181.214 39.08 181.385 39.336C181.577 39.592 181.918 39.72 182.409 39.72C182.921 39.72 183.305 39.7413 183.561 39.784C183.838 39.8053 184.126 39.9013 184.425 40.072C184.915 40.3493 185.161 41.064 185.161 42.216C185.161 43.56 184.862 44.3813 184.265 44.68C183.945 44.8293 183.657 44.9253 183.401 44.968C183.166 44.9893 182.814 45 182.345 45C180.126 45 178.441 44.4987 177.289 43.496C176.137 42.4933 175.561 40.7973 175.561 38.408V33.672C175.155 33.736 174.718 33.768 174.249 33.768C173.779 33.768 173.385 33.5867 173.065 33.224C172.766 32.8613 172.617 32.2427 172.617 31.368C172.617 30.4933 172.67 29.864 172.777 29.48C172.883 29.0747 173.033 28.7867 173.225 28.616C173.566 28.3387 173.993 28.2 174.505 28.2L175.561 28.328V25.032C175.561 24.5413 175.571 24.1787 175.593 23.944C175.635 23.7093 175.742 23.4533 175.913 23.176C176.19 22.6427 177.011 22.376 178.377 22.376C179.827 22.376 180.691 22.7707 180.969 23.56C181.075 23.9013 181.129 24.4453 181.129 25.192V28.328C182.067 28.2427 182.771 28.2 183.241 28.2C183.731 28.2 184.094 28.2213 184.329 28.264C184.585 28.2853 184.873 28.3813 185.193 28.552C185.747 28.8293 186.025 29.6507 186.025 31.016C186.025 32.36 185.737 33.1813 185.161 33.48C184.841 33.6293 184.553 33.7253 184.297 33.768C184.062 33.7893 183.699 33.8 183.209 33.8ZM201.549 40.264H210.253C210.957 40.264 211.469 40.3493 211.789 40.52C212.109 40.6693 212.323 40.9147 212.429 41.256C212.536 41.5973 212.589 42.056 212.589 42.632C212.589 43.1867 212.536 43.6347 212.429 43.976C212.323 44.3173 212.141 44.552 211.885 44.68C211.48 44.8933 210.925 45 210.221 45H198.701C197.208 45 196.333 44.5947 196.077 43.784C195.949 43.4427 195.885 42.8987 195.885 42.152V24.36C195.885 23.8693 195.896 23.5067 195.917 23.272C195.96 23.016 196.067 22.728 196.237 22.408C196.536 21.832 197.368 21.544 198.733 21.544C200.227 21.544 201.112 21.9387 201.389 22.728C201.496 23.0907 201.549 23.6453 201.549 24.392V40.264ZM214.667 30.952C214.667 30.4613 214.677 30.0987 214.699 29.864C214.741 29.608 214.837 29.32 214.987 29C215.285 28.4453 216.117 28.168 217.483 28.168C218.507 28.168 219.232 28.3493 219.659 28.712C220.021 29.0107 220.213 29.4693 220.235 30.088C220.256 30.3013 220.267 30.6107 220.267 31.016V42.216C220.267 42.7067 220.245 43.08 220.203 43.336C220.181 43.5707 220.085 43.848 219.915 44.168C219.637 44.7227 218.816 45 217.451 45C216.107 45 215.285 44.712 214.987 44.136C214.837 43.816 214.741 43.5387 214.699 43.304C214.677 43.0693 214.667 42.696 214.667 42.184V30.952ZM219.915 25.032C219.765 25.3307 219.488 25.544 219.083 25.672C218.677 25.8 218.133 25.864 217.451 25.864C216.789 25.864 216.256 25.8 215.851 25.672C215.445 25.544 215.157 25.32 214.987 25C214.837 24.68 214.741 24.4027 214.699 24.168C214.677 23.912 214.667 23.5387 214.667 23.048C214.667 22.5573 214.677 22.1947 214.699 21.96C214.741 21.704 214.837 21.4267 214.987 21.128C215.285 20.552 216.117 20.264 217.483 20.264C218.827 20.264 219.637 20.552 219.915 21.128C220.085 21.448 220.181 21.736 220.203 21.992C220.245 22.2267 220.267 22.5893 220.267 23.08C220.267 23.5707 220.245 23.944 220.203 24.2C220.181 24.4347 220.085 24.712 219.915 25.032ZM232.199 28.136C234.332 28.136 236.103 28.9573 237.511 30.6C238.94 32.2213 239.655 34.2053 239.655 36.552V42.184C239.655 42.6747 239.634 43.048 239.591 43.304C239.57 43.5387 239.484 43.8053 239.335 44.104C239.036 44.68 238.204 44.968 236.839 44.968C235.324 44.968 234.45 44.5733 234.215 43.784C234.087 43.4213 234.023 42.8773 234.023 42.152V36.52C234.023 35.6453 233.767 34.9627 233.255 34.472C232.764 33.9813 232.092 33.736 231.239 33.736C230.407 33.736 229.724 33.992 229.191 34.504C228.679 35.016 228.423 35.688 228.423 36.52V42.184C228.423 42.6747 228.402 43.048 228.359 43.304C228.338 43.5387 228.242 43.8053 228.071 44.104C227.794 44.68 226.972 44.968 225.607 44.968C224.263 44.968 223.442 44.68 223.143 44.104C222.994 43.784 222.898 43.5067 222.855 43.272C222.834 43.016 222.823 42.6427 222.823 42.152V30.824C222.823 30.3547 222.834 30.0027 222.855 29.768C222.898 29.512 223.004 29.2347 223.175 28.936C223.474 28.4027 224.295 28.136 225.639 28.136C226.94 28.136 227.74 28.3813 228.039 28.872C228.252 29.2347 228.359 29.672 228.359 30.184C228.444 30.0347 228.636 29.8213 228.935 29.544C229.234 29.2667 229.522 29.0427 229.799 28.872C230.524 28.3813 231.324 28.136 232.199 28.136ZM252.149 36.552L256.405 40.072C256.939 40.52 257.269 40.8613 257.397 41.096C257.547 41.3307 257.621 41.5547 257.621 41.768C257.621 42.28 257.291 42.9733 256.629 43.848C255.904 44.744 255.264 45.192 254.709 45.192C254.24 45.192 253.589 44.8827 252.757 44.264L252.437 44.04C251.947 43.6347 251.189 42.9307 250.165 41.928C249.141 40.904 248.363 40.1787 247.829 39.752V42.216C247.829 42.7067 247.808 43.08 247.765 43.336C247.744 43.5707 247.648 43.848 247.477 44.168C247.2 44.7227 246.379 45 245.013 45C243.669 45 242.848 44.712 242.549 44.136C242.4 43.816 242.304 43.5387 242.261 43.304C242.24 43.048 242.229 42.6747 242.229 42.184V23.016C242.229 22.5253 242.24 22.1627 242.261 21.928C242.304 21.672 242.4 21.384 242.549 21.064C242.848 20.488 243.68 20.2 245.045 20.2C246.069 20.2 246.795 20.3813 247.221 20.744C247.584 21.0427 247.776 21.512 247.797 22.152C247.819 22.344 247.829 22.6427 247.829 23.048V33.192C248.213 32.872 248.789 32.328 249.557 31.56C250.347 30.792 250.933 30.248 251.317 29.928L251.701 29.672C252.448 29.096 253.088 28.808 253.621 28.808C254.155 28.808 254.763 29.2453 255.445 30.12C256.149 30.9733 256.501 31.6453 256.501 32.136C256.501 32.6267 256.107 33.2027 255.317 33.864L252.149 36.552Z" fill="white"/>
<defs>
<clipPath id="clip0_92_48">
<rect width="50" height="50" fill="white" transform="translate(25) rotate(30)"/>
</clipPath>
</defs>
</svg>
